<?xml version="1.0" standalone="no"?>
<!DOCTYPE svg PUBLIC "-//W3C//DTD SVG 20010904//EN"
 "http://www.w3.org/TR/2001/REC-SVG-20010904/DTD/svg10.dtd">
<svg version="1.0" xmlns="http://www.w3.org/2000/svg"
 width="1710.000000pt" height="1710.000000pt" viewBox="0 0 1710.000000 1710.000000"
 preserveAspectRatio="xMidYMid meet">
<metadata>
Created by potrace 1.14, written by Peter Selinger 2001-2017
</metadata>
<g transform="translate(0.000000,1710.000000) scale(0.100000,-0.100000)"
fill="#000000" stroke="none">
<path d="M8694 16998 c-38 -51 -71 -95 -74 -98 -3 -3 -32 -41 -65 -85 -32 -44
-63 -84 -67 -90 -4 -5 -18 -23 -31 -40 -13 -16 -100 -131 -193 -255 -93 -124
-173 -230 -179 -237 -20 -24 -32 -40 -138 -183 -59 -80 -113 -152 -120 -160
-7 -9 -32 -42 -57 -75 -24 -33 -48 -64 -53 -70 -4 -5 -33 -44 -63 -85 -30 -41
-60 -82 -67 -90 -7 -8 -82 -109 -167 -225 -85 -115 -158 -214 -163 -220 -7 -9
-68 -92 -102 -140 -8 -11 -39 -52 -67 -91 -29 -40 -59 -80 -66 -90 -7 -11 -69
-98 -137 -194 -69 -96 -131 -183 -138 -193 -6 -11 -30 -44 -52 -75 -23 -32
-75 -106 -115 -167 -41 -60 -77 -112 -80 -115 -3 -3 -9 -12 -15 -22 -5 -9 -67
-101 -136 -205 -190 -285 -599 -938 -599 -957 0 -4 -154 -281 -170 -306 -13
-21 -293 -584 -318 -640 -266 -600 -438 -1177 -497 -1665 -3 -27 -8 -61 -10
-75 -27 -160 -27 -703 0 -905 3 -16 9 -68 15 -115 6 -47 20 -130 31 -185 11
-55 23 -111 25 -125 11 -58 55 -221 80 -300 15 -47 28 -87 29 -90 3 -16 50
-150 61 -175 7 -16 25 -59 39 -95 78 -192 187 -406 298 -585 46 -74 165 -250
193 -285 7 -8 40 -50 74 -93 140 -178 369 -419 515 -542 33 -27 69 -58 80 -69
44 -40 286 -218 383 -280 262 -170 563 -317 862 -421 58 -20 110 -38 115 -39
6 -2 17 -6 25 -9 56 -23 428 -109 530 -123 19 -2 60 -8 90 -13 54 -10 82 -13
230 -28 155 -15 670 -8 792 12 13 2 46 6 73 10 28 3 75 10 105 15 30 6 69 12
85 14 97 13 356 77 510 126 140 45 269 91 280 101 5 5 14 9 21 9 26 0 315 140
472 228 104 59 357 223 407 264 11 9 57 46 103 81 194 152 433 384 592 577 90
109 190 240 190 249 0 5 3 11 8 13 4 2 30 37 58 78 271 400 492 916 589 1377
3 13 7 33 10 45 19 90 29 147 44 250 29 206 35 302 36 543 0 181 -4 251 -20
325 -3 14 -9 49 -15 78 -16 91 -78 262 -137 380 -65 131 -154 268 -262 402
-73 91 -360 386 -467 480 -128 114 -306 266 -479 410 -27 23 -61 52 -75 64
-14 11 -66 55 -115 96 -50 41 -92 77 -95 80 -3 3 -34 30 -70 60 -36 30 -67 57
-70 60 -3 3 -25 23 -50 44 -148 129 -248 223 -436 411 -115 115 -239 243 -275
283 -35 41 -73 84 -84 95 -23 25 -237 294 -276 347 -472 646 -781 1356 -955
2195 -14 66 -27 136 -30 155 -2 19 -6 42 -9 50 -3 8 -7 33 -10 55 -3 22 -7 49
-9 60 -2 11 -7 45 -11 75 -4 30 -9 63 -11 74 -2 10 -6 44 -9 75 -4 31 -8 67
-10 81 -7 47 -22 212 -30 315 -12 162 -14 211 -21 435 -3 129 -8 236 -9 238
-1 1 -33 -39 -71 -90z"/>
<path d="M6780 4705 c-109 -27 -205 -81 -283 -158 -58 -59 -81 -93 -210 -317
-58 -102 -112 -193 -119 -202 -12 -16 -19 -16 -93 -3 -44 7 -96 16 -115 20
-19 3 -46 8 -60 10 -41 9 -61 12 -160 29 -52 9 -104 18 -115 20 -11 2 -87 16
-170 30 -196 34 -196 34 -295 53 -138 25 -268 21 -355 -12 -120 -46 -217 -116
-290 -210 -46 -60 -101 -185 -110 -252 -3 -21 -10 -58 -15 -83 -8 -40 -17 -96
-26 -155 -1 -11 -8 -45 -14 -75 -6 -30 -13 -68 -16 -85 -2 -16 -10 -64 -17
-105 -28 -158 -4 -291 73 -422 94 -158 254 -263 446 -292 21 -3 53 -8 69 -11
17 -3 68 -13 115 -21 47 -8 109 -20 139 -25 l54 -11 -534 -194 c-740 -269
-808 -294 -861 -320 -120 -60 -235 -195 -285 -334 -22 -61 -27 -95 -29 -183
-3 -121 1 -139 76 -342 26 -71 69 -188 95 -260 25 -71 61 -157 78 -189 98
-184 307 -310 517 -310 80 0 196 21 239 44 17 9 48 21 66 26 13 3 153 54 185
67 14 5 30 11 35 13 6 1 48 17 95 34 47 18 96 36 110 40 14 5 68 24 120 43 52
19 154 56 225 82 72 25 139 50 150 55 11 5 54 21 95 35 80 28 172 62 205 75
11 5 47 18 80 29 33 11 128 45 210 76 83 31 161 60 175 65 24 7 1086 393 1245
452 44 16 91 33 105 38 14 4 111 39 215 78 105 39 237 87 295 107 58 20 119
43 135 50 17 7 71 27 120 44 50 18 119 43 155 56 36 14 77 25 91 25 14 0 77
-30 140 -66 62 -37 139 -80 169 -97 30 -17 72 -41 92 -54 21 -13 40 -23 42
-23 3 0 40 -22 83 -48 43 -26 105 -63 138 -81 76 -43 100 -57 208 -120 49 -28
93 -51 98 -51 5 0 9 -4 9 -10 0 -5 4 -10 9 -10 5 0 55 -27 111 -60 56 -33 103
-60 105 -60 2 0 61 -34 131 -76 71 -42 138 -80 149 -86 11 -5 29 -14 40 -21
28 -17 446 -259 805 -467 451 -260 470 -268 616 -274 131 -5 242 26 356 101
92 60 147 124 220 253 14 25 68 117 119 205 120 205 146 257 165 322 9 29 19
51 22 49 4 -2 23 -7 42 -10 50 -8 261 -45 290 -51 104 -21 255 -27 330 -14
110 20 239 96 323 190 93 105 139 220 163 408 3 25 7 48 9 51 3 4 7 25 10 46
3 21 18 113 34 204 34 201 33 275 -6 395 -41 127 -143 252 -259 320 -56 33
-157 71 -209 79 -22 3 -51 8 -65 10 -14 3 -92 17 -175 31 -255 45 -479 84
-505 89 -91 17 -330 59 -355 62 -16 3 -50 9 -75 14 -25 5 -63 12 -85 15 -68
12 -89 16 -93 20 -2 1 12 13 30 26 118 84 203 222 232 379 21 117 11 210 -41
350 -33 90 -85 232 -140 385 -48 134 -85 197 -158 271 -76 76 -143 119 -245
156 -54 19 -85 23 -185 23 -131 -1 -108 6 -445 -118 -52 -19 -153 -56 -225
-82 -295 -106 -351 -127 -370 -135 -11 -5 -177 -66 -370 -135 -192 -70 -393
-143 -445 -162 -52 -19 -99 -36 -105 -37 -5 -2 -17 -6 -25 -9 -27 -11 -294
-109 -335 -123 -22 -7 -76 -26 -121 -42 l-80 -30 -50 28 c-28 15 -68 38 -90
52 -21 13 -46 28 -54 32 -8 4 -24 12 -35 19 -28 17 -172 100 -217 126 -65 36
-93 53 -453 261 -192 112 -363 211 -380 220 -16 9 -101 58 -189 109 -87 50
-164 91 -170 91 -7 0 -16 4 -21 9 -20 18 -144 41 -221 40 -43 0 -104 -7 -134
-14z"/>
</g>
</svg>
